# Blender 3.6.2
# www.blender.org
mtllib åšé“ä¸‹å·´.mtl
o 22
v 1.979091 -4.001775 4.143038
v 1.608050 -5.305328 1.567929
v 3.605675 -3.435598 1.380146
v -2.591551 -4.983215 3.274745
v 1.644486 -5.083332 4.655990
v -0.001482 -6.389889 2.356913
v 0.930750 -4.702480 5.234453
v 3.175754 -3.323446 2.272738
v -1.189560 -6.300147 5.066034
v -2.060883 -6.035528 3.662321
v 1.380237 -4.227423 4.819105
v 1.306331 -3.382179 4.910084
v 1.735157 -3.396927 4.434131
v 2.750834 -3.213709 2.914369
v -2.348519 -4.560511 3.793030
v -1.879964 -5.867933 4.364578
v 1.482292 -6.393700 3.303326
v -0.001419 -7.234097 3.555759
v 1.668171 -4.961866 -0.135813
v -0.001482 -5.325983 0.344744
v 0.827915 -5.925787 2.107302
v 2.280672 -4.836433 1.060341
v 2.790583 -4.580361 1.733005
v 1.321836 -6.969077 4.589139
v -2.166953 -2.402889 4.002380
v -1.659572 -2.681139 4.592682
v -0.001397 -7.704310 4.432310
v 2.447640 -2.869882 3.460006
v -1.103907 -5.797582 5.168693
v 0.699727 -7.477495 4.336266
v -0.001404 -7.819107 5.017487
v -0.916364 -2.977384 5.109357
v -0.001482 -5.765724 5.572141
v 1.009838 -5.238057 5.210754
v 0.886376 -4.167999 5.228038
v 0.468925 -5.037513 5.488807
v 2.060684 -6.021150 3.653884
v 2.590815 -4.963930 3.247844
v 1.880166 -5.844229 4.338858
v 2.278939 -2.643618 3.839326
v 2.952504 -4.337152 0.614150
v -0.001509 -5.161944 5.574002
v -4.066243 -3.271437 -0.097394
v -3.602638 -3.435483 1.383838
v 2.685395 -4.871414 2.677998
v -0.001499 -4.559145 5.528377
v -3.176498 -3.329066 2.281765
v 0.442023 -3.910237 5.405083
v 1.187814 -6.277891 5.046719
v 0.633532 -7.308881 5.210474
v -0.001374 -7.006854 5.477549
v -2.753707 -3.232869 2.923015
v -2.450619 -2.899331 3.466551
v -2.281918 -2.670065 3.842738
v 0.552728 -6.222908 5.442321
v 2.163882 -2.382444 3.999368
v -2.308248 -2.275313 3.760625
v 1.658126 -2.659065 4.589849
v -2.221032 -2.536157 3.944716
v -1.946741 -2.540998 4.290650
v -2.964473 -4.342639 0.623907
v 0.913388 -2.964046 5.106114
v -1.677369 -2.895984 4.591931
v -1.313805 -2.825190 4.871405
v -1.644572 -5.123248 4.682391
v 0.879196 -3.669330 5.211025
v -0.001484 -4.010069 5.475587
v 2.492145 -4.767950 3.537515
v 1.260577 -6.716518 4.880772
v -0.001389 -7.539431 5.333919
v -2.687399 -4.887527 2.699745
v -2.492203 -4.789992 3.565226
v 2.173172 -4.282305 3.969555
v -1.978375 -4.053709 4.168257
v -1.735693 -3.440374 4.448942
v -1.308650 -3.415766 4.920943
v -0.896092 -3.280614 5.173826
v -0.470064 -3.121711 5.278326
v -4.491563 -2.713246 -0.407581
v -1.382681 -4.274382 4.838380
v -3.979430 -2.861320 0.943932
v -3.455956 -2.840346 1.858131
v -2.971817 -2.826611 2.580984
v -1.484656 -6.408823 3.307299
v -2.172523 -4.320432 3.991682
v 1.816645 -3.697572 4.293003
v -2.458702 -2.480667 3.570400
v -0.836023 -5.928042 2.115818
v -2.727088 -2.607546 3.163038
v -4.266063 -3.111105 -0.953078
v -3.840018 -3.383796 0.700341
v -3.559579 -3.817713 0.240980
v -2.371809 -2.381876 3.688060
v -3.382103 -3.409473 1.906478
v -1.984930 -2.711653 4.255844
v -3.165633 -4.065174 1.935690
v -1.308362 -3.083463 4.907783
v -0.454359 -3.468845 5.348870
v -4.709078 -2.585230 -1.194113
v -1.702496 -4.964629 -0.119246
v -4.247129 -2.809182 0.315236
v -1.816531 -3.748669 4.314089
v -0.702353 -7.483339 4.341190
v -3.713006 -2.864920 1.452861
v -2.959758 -3.284566 2.609486
v -2.883659 -3.952564 2.826662
v -3.196882 -2.829859 2.224061
v -2.832510 -2.736309 2.896325
v -2.589694 -2.538856 3.390823
v -3.757470 -3.630339 -0.728857
v -3.354309 -3.970300 1.159767
v -3.019141 -4.054666 2.476003
v -2.712363 -3.843215 3.120086
v -2.319920 -3.521274 3.639483
v -2.074585 -3.080558 4.035326
v -2.474029 -4.564855 -0.311373
v -2.209272 -5.366587 2.596756
v -1.963478 -6.096802 4.089427
v -1.775184 -5.516441 4.550931
v -1.501843 -4.708594 4.773090
v -1.321342 -3.831295 4.887587
v -1.324044 -6.981845 4.602700
v 1.101656 -5.770844 5.153000
v 1.699825 -3.118877 4.544105
v -1.012697 -5.268011 5.222063
v -0.445012 -3.919854 5.406775
v -0.742133 -7.025888 3.481232
v -0.859050 -5.222824 0.143640
v -0.472061 -5.052280 5.492040
v -0.669329 -7.584211 4.905791
v -2.515088 -3.719082 3.392834
v -0.511063 -5.640019 5.486516
v -1.700859 -3.153453 4.553542
v -0.889672 -4.196105 5.236554
v -2.583236 -3.086037 3.214158
v -2.354306 -2.774849 3.679173
v -0.448939 -4.462432 5.453450
v -0.598213 -6.819207 5.372348
v 2.367630 -2.360743 3.683677
v -1.385468 -6.908975 4.096433
v -0.555432 -6.235989 5.449407
v 1.983241 -2.685572 4.252582
v 1.305879 -3.057580 4.900887
v 0.451418 -3.462968 5.347789
v -0.636140 -7.318001 5.219070
v 4.711392 -2.594051 -1.190855
v 4.253820 -2.820485 0.319284
v 3.716040 -2.870507 1.451640
v 3.195644 -2.829317 2.220158
v 2.828185 -2.720891 2.892202
v 2.585382 -2.518265 3.387370
v 3.748669 -3.633334 -0.731889
v 3.354578 -3.966487 1.153783
v 3.017173 -4.042645 2.459460
v 2.710805 -3.823941 3.104124
v 2.319246 -3.478724 3.622140
v 2.073284 -3.043234 4.025768
v 2.440073 -4.560716 -0.327880
v 2.348855 -4.533415 3.769232
v 2.204904 -5.348630 2.572227
v 1.963004 -6.079931 4.070743
v 1.777033 -5.482368 4.517555
v 1.500457 -4.662075 4.750983
v -0.001417 -6.384443 5.539956
v 1.383477 -6.898004 4.088367
v 1.319054 -3.789456 4.871695
v 0.739479 -7.021615 3.478030
v 0.844637 -5.223628 0.135239
v 0.666666 -7.576982 4.898696
v -1.629150 -5.311319 1.582921
v 0.508112 -5.625378 5.481552
v 0.445868 -4.449057 5.450518
v 0.595672 -6.807941 5.363492
v 2.304079 -2.256977 3.755392
v 1.944952 -2.519184 4.289099
v 2.218011 -2.512693 3.941954
v 1.311306 -2.804585 4.867251
v 1.676063 -2.868613 4.586477
v -0.001482 -3.553879 5.419815
v 0.467105 -3.118232 5.277495
v 0.893251 -3.263322 5.169413
v 4.496974 -2.724583 -0.402938
v -0.001482 -3.190773 5.357196
v -0.934076 -4.734342 5.245091
v -2.026631 -2.900277 4.179346
v 3.984886 -2.870174 0.945638
v 3.457011 -2.843693 1.855129
v -2.161583 -3.281907 3.849554
v 4.069219 -3.278459 -0.095333
v -3.161763 -4.118714 -0.515434
v 2.968517 -2.818718 2.576841
v 2.722684 -2.589485 3.159736
v 2.454475 -2.458251 3.566497
v -2.794326 -4.590061 1.746325
v -0.882194 -3.691991 5.217130
v -1.262623 -6.733390 4.898186
v 4.265048 -3.117835 -0.951487
v 3.556693 -3.818673 0.238027
v 3.844449 -3.387983 0.700466
v 3.164660 -4.056974 1.923881
v -2.300880 -4.844785 1.075968
v 3.382987 -3.406054 1.899032
v 2.881213 -3.938812 2.809058
v 2.957484 -3.274375 2.600719
v 2.580343 -3.057392 3.205001
v 2.514144 -3.688875 3.377273
v 2.160602 -3.239589 3.835793
v 2.025105 -2.868726 4.173301
v 2.351325 -2.746563 3.674480
v 3.140165 -4.116493 -0.525782
vn 0.2685 -0.2567 0.9285
vn 0.5218 -0.0822 0.8491
vn 0.1879 -0.0507 0.9809
vn 0.3990 0.0593 0.9150
vn 0.5936 -0.1951 0.7807
vn 0.2959 -0.9405 -0.1671
vn 0.8249 -0.3033 0.4770
vn 0.3666 -0.6916 0.6224
vn 0.6521 0.0400 0.7571
vn 0.8234 -0.0488 0.5653
vn 0.8922 -0.0814 0.4443
vn 0.8151 -0.5762 0.0600
vn 0.6434 0.0599 0.7632
vn 0.8418 -0.1991 0.5017
vn 0.7958 -0.5985 0.0926
vn 0.6892 -0.7244 -0.0159
vn 0.9189 -0.0966 0.3825
vn 0.4642 0.0245 0.8854
vn 0.7314 0.0940 0.6754
vn 0.9049 -0.4102 0.1134
vn 0.7069 -0.4770 0.5222
vn 0.7326 0.0808 0.6759
vn 0.4589 -0.8769 -0.1430
vn 0.8451 -0.1600 0.5101
vn 0.8847 -0.1824 0.4291
vn 0.8994 -0.2892 0.3278
vn 0.8668 0.0278 0.4978
vn 0.5299 -0.7733 -0.3483
vn 0.8760 -0.2251 0.4266
vn 0.8704 -0.3827 0.3098
vn 0.5347 -0.8400 -0.0915
vn 0.1305 0.1218 0.9839
vn 0.8231 0.0272 0.5672
vn 0.8391 -0.5099 0.1896
vn 0.8509 -0.0714 0.5205
vn 0.1770 -0.0017 0.9842
vn 0.7452 -0.1187 0.6562
vn 0.6913 -0.0281 0.7220
vn 0.7718 0.0351 0.6349
vn 0.8118 -0.5838 0.0098
vn 0.8484 -0.4884 0.2043
vn 0.8370 -0.2056 0.5070
vn 0.8639 -0.1135 0.4907
vn 0.6470 -0.6802 -0.3446
vn 0.8361 -0.0969 0.5400
vn 0.8221 -0.2129 0.5281
vn 0.6257 -0.7792 -0.0374
vn 0.8399 0.0081 0.5427
vn 0.7218 -0.6918 0.0222
vn -0.1521 0.0726 0.9857
vn -0.3903 0.0623 0.9186
vn -0.4235 0.0631 0.9037
vn -0.2526 -0.2591 0.9322
vn -0.1967 -0.1058 0.9747
vn 0.2119 -0.1061 0.9715
vn 0.4330 0.0618 0.8993
vn 0.6099 -0.0053 0.7925
vn 0.1431 0.0895 0.9857
vn 0.1565 0.0724 0.9850
vn 0.7383 -0.0929 0.6681
vn 0.7599 -0.0236 0.6496
vn 0.5215 -0.7552 -0.3973
vn -0.8743 -0.3763 0.3067
vn -0.8667 -0.1114 0.4862
vn -0.8254 0.0315 0.5637
vn -0.7314 -0.6813 0.0296
vn -0.8237 -0.2069 0.5279
vn -0.6390 -0.7686 -0.0302
vn 0.1945 -0.8970 -0.3968
vn 0.8307 0.1174 0.5442
vn 0.8229 -0.0939 0.5604
vn 0.7748 -0.6244 0.0994
vn -0.4815 0.1335 0.8662
vn -0.5347 0.0542 0.8433
vn -0.2966 0.1784 0.9382
vn -0.1296 0.1220 0.9840
vn -0.8007 -0.5907 0.0998
vn -0.8294 0.1093 0.5479
vn -0.8421 0.0264 0.5386
vn -0.7205 0.0408 0.6923
vn -0.7618 -0.0549 0.6455
vn -0.6169 0.0751 0.7835
vn -0.3403 0.1005 0.9349
vn -0.1285 0.1800 0.9752
vn -0.8543 -0.0671 0.5154
vn -0.8434 -0.5017 0.1923
vn -0.8415 0.0115 0.5402
vn -0.7823 0.0486 0.6210
vn -0.8133 -0.0614 0.5785
vn -0.8801 -0.2211 0.4202
vn -0.8355 -0.0964 0.5410
vn -0.6695 -0.0048 0.7428
vn -0.8396 -0.1984 0.5056
vn 0.8360 0.1122 0.5372
vn 0.4810 -0.0172 0.8766
vn 0.3681 -0.8963 -0.2473
vn 0.2156 -0.7829 -0.5836
vn 0.6398 0.0330 0.7679
vn 0.7109 -0.6651 -0.2287
vn 0.6098 -0.7747 -0.1674
vn 0.8426 0.0577 0.5354
vn 0.8112 -0.1689 0.5598
vn -0.8150 -0.5794 0.0079
vn -0.9198 -0.0952 0.3807
vn -0.9297 -0.3227 0.1774
vn 0.8438 0.0303 0.5358
vn 0.7209 0.0344 0.6922
vn 0.7914 0.1156 0.6002
vn 0.7898 0.0581 0.6106
vn 0.8203 0.1007 0.5630
vn -0.5861 -0.2007 0.7850
vn -0.5096 -0.0815 0.8565
vn 0.8146 -0.0670 0.5761
vn 0.7623 -0.0653 0.6440
vn 0.6160 0.0680 0.7848
vn -0.8180 0.1069 0.5652
vn -0.8650 0.0342 0.5005
vn -0.8430 0.0601 0.5346
vn -0.8363 -0.0234 0.5478
vn -0.8536 -0.4806 0.2009
vn 0.8542 0.0638 0.5161
vn -0.8114 -0.1559 0.5633
vn 0.6470 -0.7598 -0.0642
vn -0.6501 -0.6790 -0.3412
vn 0.3880 -0.7663 -0.5121
vn 0.2084 -0.8648 -0.4569
vn -0.5323 -0.7723 -0.3467
vn -0.8257 -0.3115 0.4703
vn 0.8362 -0.0305 0.5476
vn -0.6989 -0.7151 -0.0116
vn -0.6828 -0.0260 0.7301
vn -0.7311 0.0965 0.6754
vn -0.8949 -0.0764 0.4397
vn -0.9033 -0.2839 0.3217
vn -0.8246 -0.0491 0.5636
vn -0.7369 -0.0819 0.6710
vn 0.1286 0.1803 0.9752
vn 0.5410 0.0483 0.8396
vn -0.6004 0.0011 0.7997
vn -0.2050 -0.8652 -0.4575
vn 0.3459 0.0986 0.9331
vn 0.2984 0.1779 0.9377
vn -0.2156 -0.7822 -0.5845
vn -0.8425 -0.1888 0.5046
vn 0.9286 -0.3242 0.1804
vn 0.7846 0.0487 0.6181
vn -0.8137 -0.5786 0.0553
vn -0.1957 -0.8967 -0.3970
vn 0.4835 0.1296 0.8657
vn 0.6700 -0.0146 0.7423
vn -0.3602 -0.8993 -0.2480
vn -0.6434 -0.7626 -0.0670
vn -0.8343 0.1174 0.5387
vn -0.8537 0.0705 0.5159
vn -0.7029 -0.4855 0.5197
vn -0.1687 -0.0006 0.9857
vn -0.7920 0.1179 0.5991
vn -0.7892 0.0649 0.6107
vn -0.1757 -0.0497 0.9832
vn -0.7705 0.0415 0.6361
vn -0.7828 -0.6139 0.1020
vn -0.5437 -0.8348 -0.0868
vn -0.7133 -0.6630 -0.2272
vn -0.8226 -0.0830 0.5625
vn -0.8852 -0.1873 0.4259
vn -0.6180 -0.7692 -0.1626
vn -0.4582 -0.8775 -0.1414
vn -0.3793 -0.7678 -0.5163
vn -0.5172 -0.7583 -0.3968
vn -0.9031 -0.4152 0.1091
vn -0.8461 -0.1496 0.5117
vn -0.6314 0.0359 0.7747
vn -0.2889 -0.9424 -0.1685
vn -0.3528 -0.6977 0.6234
vn -0.7580 -0.0163 0.6521
vn -0.7308 0.0843 0.6774
vn -0.4546 0.0250 0.8903
vn -0.4695 -0.0144 0.8828
vn -0.6432 0.0427 0.7645
vn -0.6365 0.0599 0.7689
vn -0.7449 -0.1268 0.6550
vn -0.1401 0.0903 0.9860
vt 0.177417 0.037470
vt 0.166728 0.035884
vt 0.166703 0.026763
vt 0.178289 0.029897
vt 0.185737 0.045458
vt 0.176317 0.044492
vt 0.187734 0.039289
vt 0.166753 0.045004
vt 0.175202 0.050241
vt 0.166745 0.050077
vt 0.181614 0.063655
vt 0.174239 0.063060
vt 0.174135 0.059325
vt 0.181534 0.059962
vt 0.189305 0.032537
vt 0.178725 0.022495
vt 0.166711 0.019737
vt 0.166719 0.012712
vt 0.178941 0.015179
vt 0.200227 0.028338
vt 0.199198 0.035235
vt 0.190107 0.025335
vt 0.194851 0.047357
vt 0.192113 0.052592
vt 0.183658 0.050911
vt 0.207265 0.038259
vt 0.205131 0.044177
vt 0.197309 0.041573
vt 0.219742 0.041816
vt 0.217085 0.046341
vt 0.212803 0.041878
vt 0.214729 0.036307
vt 0.200828 0.021160
vt 0.191163 0.017646
vt 0.189883 0.057187
vt 0.182068 0.055721
vt 0.205134 0.066074
vt 0.204164 0.068036
vt 0.200263 0.066563
vt 0.200877 0.064244
vt 0.224288 0.325688
vt 0.219594 0.325915
vt 0.213621 0.319378
vt 0.218024 0.318949
vt 0.207414 0.313863
vt 0.205327 0.315691
vt 0.199355 0.311475
vt 0.200676 0.309438
vt 0.208598 0.031872
vt 0.174374 0.055068
vt 0.202433 0.049664
vt 0.199403 0.054761
vt 0.210492 0.024675
vt 0.196866 0.059147
vt 0.193929 0.304610
vt 0.193112 0.306173
vt 0.184453 0.303853
vt 0.184385 0.302389
vt 0.206441 0.063430
vt 0.202064 0.061284
vt 0.222130 0.036305
vt 0.216311 0.030490
vt 0.210188 0.046956
vt 0.192254 0.308238
vt 0.183901 0.305795
vt 0.227948 0.045009
vt 0.224754 0.048570
vt 0.216143 0.327379
vt 0.213315 0.329461
vt 0.208608 0.322560
vt 0.210735 0.320966
vt 0.202762 0.307968
vt 0.166754 0.062672
vt 0.174438 0.066322
vt 0.166754 0.065841
vt 0.221380 0.051897
vt 0.217646 0.054758
vt 0.213890 0.050339
vt 0.166736 0.055150
vt 0.203901 0.317950
vt 0.199194 0.313340
vt 0.208296 0.059159
vt 0.212479 0.061731
vt 0.210960 0.065418
vt 0.210759 0.054412
vt 0.214397 0.057815
vt 0.191376 0.310554
vt 0.183558 0.307768
vt 0.208909 0.067786
vt 0.206940 0.069603
vt 0.210821 0.312895
vt 0.159463 0.059325
vt 0.159225 0.055068
vt 0.166862 0.055150
vt 0.166854 0.058911
vt 0.151985 0.063655
vt 0.152064 0.059962
vt 0.159360 0.063060
vt 0.151531 0.055721
vt 0.156182 0.037470
vt 0.155309 0.029897
vt 0.166895 0.026763
vt 0.166870 0.035884
vt 0.157281 0.044492
vt 0.166845 0.045004
vt 0.188951 0.061047
vt 0.188763 0.064367
vt 0.166745 0.058911
vt 0.195646 0.062500
vt 0.195156 0.065301
vt 0.173671 0.305812
vt 0.174173 0.303960
vt 0.111555 0.327379
vt 0.116963 0.320966
vt 0.119090 0.322560
vt 0.114383 0.329461
vt 0.125302 0.059159
vt 0.121119 0.061731
vt 0.119201 0.057815
vt 0.122839 0.054412
vt 0.112219 0.051897
vt 0.116514 0.046341
vt 0.119709 0.050339
vt 0.115953 0.054758
vt 0.110840 0.319835
vt 0.117110 0.313979
vt 0.120343 0.314134
vt 0.114369 0.319600
vt 0.122638 0.065418
vt 0.127158 0.063430
vt 0.128464 0.066074
vt 0.124689 0.067786
vt 0.124393 0.308860
vt 0.126887 0.309661
vt 0.174428 0.302261
vt 0.163729 0.301002
vt 0.163673 0.299705
vt 0.174191 0.300871
vt 0.203318 0.070258
vt 0.205667 0.071637
vt 0.204742 0.073589
vt 0.202535 0.072422
vt 0.151737 0.066818
vt 0.151406 0.069535
vt 0.144743 0.069951
vt 0.144836 0.067340
vt 0.144836 0.064367
vt 0.159160 0.066322
vt 0.158914 0.069197
vt 0.166845 0.062672
vt 0.166845 0.065841
vt 0.104666 0.326133
vt 0.108419 0.326026
vt 0.130280 0.070258
vt 0.131063 0.072422
vt 0.128856 0.073589
vt 0.127931 0.071637
vt 0.129434 0.068036
vt 0.126658 0.069603
vt 0.138787 0.068031
vt 0.139058 0.070536
vt 0.134481 0.071381
vt 0.133916 0.069030
vt 0.138443 0.065301
vt 0.133336 0.066563
vt 0.166845 0.069010
vt 0.108844 0.048570
vt 0.113857 0.041816
vt 0.105650 0.045009
vt 0.111469 0.036305
vt 0.207253 0.051856
vt 0.163757 0.302429
vt 0.204368 0.056893
vt 0.122371 0.315691
vt 0.128344 0.311475
vt 0.128504 0.313340
vt 0.123797 0.317950
vt 0.118869 0.036307
vt 0.125001 0.031872
vt 0.126334 0.038259
vt 0.120795 0.041878
vt 0.117287 0.030490
vt 0.123106 0.024675
vt 0.194812 0.068031
vt 0.199682 0.069030
vt 0.199117 0.071381
vt 0.194541 0.070536
vt 0.145864 0.039289
vt 0.144293 0.032537
vt 0.147861 0.045458
vt 0.188762 0.067340
vt 0.188855 0.069951
vt 0.123410 0.046956
vt 0.128467 0.044177
vt 0.131166 0.049664
vt 0.126345 0.051856
vt 0.129231 0.056893
vt 0.131534 0.061284
vt 0.132722 0.064244
vt 0.137953 0.062500
vt 0.135444 0.308238
vt 0.143797 0.305795
vt 0.144141 0.307768
vt 0.136322 0.310554
vt 0.163785 0.303856
vt 0.134545 0.306214
vt 0.143359 0.303732
vt 0.133371 0.028338
vt 0.143492 0.025335
vt 0.134401 0.035235
vt 0.136289 0.041573
vt 0.138747 0.047357
vt 0.141486 0.052592
vt 0.134195 0.054761
vt 0.144647 0.061047
vt 0.174685 0.069197
vt 0.166754 0.069010
vt 0.181861 0.066818
vt 0.154027 0.305812
vt 0.153525 0.303960
vt 0.163942 0.302429
vt 0.163914 0.303856
vt 0.182193 0.069535
vt 0.153369 0.302157
vt 0.163970 0.301002
vt 0.132771 0.021160
vt 0.142436 0.017646
vt 0.153901 0.300454
vt 0.164026 0.299705
vt 0.143765 0.301908
vt 0.154657 0.015179
vt 0.154874 0.022495
vt 0.166854 0.050077
vt 0.158396 0.050241
vt 0.136732 0.059147
vt 0.133603 0.304773
vt 0.143716 0.057187
vt 0.166879 0.012712
vt 0.166887 0.019737
vt 0.149940 0.050911
s 0
usemtl wire_008110135.001
f 173/1/1 51/2/1 70/3/1 50/4/1
f 123/5/2 55/6/2 173/1/2 49/7/2
f 164/8/3 55/6/3 171/9/3 33/10/3
f 66/11/4 48/12/4 172/13/4 35/14/4
f 49/7/5 173/1/5 50/4/5 69/15/5
f 169/16/6 31/17/6 27/18/6 30/19/6
f 161/20/7 39/21/7 69/15/7 24/22/7
f 50/4/8 70/3/8 31/17/8 169/16/8
f 123/5/9 5/23/9 163/24/9 34/25/9
f 68/26/10 159/27/10 162/28/10 39/21/10
f 202/29/11 8/30/11 203/31/11 154/32/11
f 37/33/12 161/20/12 24/22/12 165/34/12
f 34/25/13 163/24/13 11/35/13 7/36/13
f 209/37/14 40/38/14 208/39/14 157/40/14
f 146/41/15 182/42/15 189/43/15 197/44/15
f 198/45/16 153/46/16 23/47/16 41/48/16
f 154/32/17 203/31/17 68/26/17 38/49/17
f 171/9/18 34/25/18 7/36/18 36/50/18
f 5/23/19 73/51/19 1/52/19 163/24/19
f 45/53/20 38/49/20 161/20/20 37/33/20
f 69/15/21 50/4/21 169/16/21 24/22/21
f 163/24/22 1/52/22 86/54/22 11/35/22
f 158/55/23 22/56/23 2/57/23 19/58/23
f 28/59/24 209/37/24 157/40/24 207/60/24
f 38/49/25 68/26/25 39/21/25 161/20/25
f 3/61/26 202/29/26 154/32/26 200/62/26
f 203/31/27 155/63/27 159/27/27 68/26/27
f 22/56/28 160/64/28 17/65/28 2/57/28
f 186/66/29 148/67/29 202/29/29 3/61/29
f 147/68/30 186/69/30 3/70/30 199/71/30
f 210/72/31 41/48/31 22/56/31 158/55/31
f 67/73/32 48/12/32 144/74/32 179/75/32
f 187/76/33 149/77/33 204/78/33 8/30/33
f 182/42/34 147/68/34 199/71/34 189/43/34
f 148/67/35 187/76/35 8/30/35 202/29/35
f 33/10/36 171/9/36 36/50/36 42/79/36
f 39/21/37 162/28/37 49/7/37 69/15/37
f 162/28/38 5/23/38 123/5/38 49/7/38
f 159/27/39 73/51/39 5/23/39 162/28/39
f 153/46/40 200/80/40 45/81/40 23/47/40
f 199/71/41 3/70/41 200/80/41 153/46/41
f 28/59/42 205/82/42 150/83/42 192/84/42
f 205/82/43 14/85/43 191/86/43 150/83/43
f 160/64/44 37/87/44 165/88/44 17/65/44
f 151/89/45 193/90/45 40/38/45 209/37/45
f 192/84/46 151/89/46 209/37/46 28/59/46
f 152/91/47 198/45/47 41/48/47 210/72/47
f 149/77/48 191/86/48 14/85/48 204/78/48
f 197/44/49 189/43/49 198/45/49 152/91/49
f 137/92/50 129/93/50 42/94/50 46/95/50
f 195/96/51 134/97/51 137/92/51 126/98/51
f 134/97/52 184/99/52 129/93/52 137/92/52
f 138/100/53 145/101/53 70/102/53 51/103/53
f 141/104/54 138/100/54 51/103/54 164/105/54
f 55/6/55 164/8/55 51/2/55 173/1/55
f 35/14/56 172/13/56 36/50/56 7/36/56
f 166/106/57 12/107/57 66/11/57 35/14/57
f 48/12/58 67/73/58 46/108/58 172/13/58
f 172/13/59 46/108/59 42/79/59 36/50/59
f 13/109/60 124/110/60 12/107/60 166/106/60
f 86/54/61 13/109/61 166/106/61 11/35/61
f 165/88/62 30/111/62 167/112/62 17/65/62
f 101/113/63 91/114/63 44/115/63 81/116/63
f 135/117/64 108/118/64 83/119/64 52/120/64
f 82/121/65 47/122/65 105/123/65 107/124/65
f 90/125/66 110/126/66 92/127/66 43/128/66
f 89/129/67 53/130/67 136/131/67 109/132/67
f 110/126/68 190/133/68 61/134/68 92/127/68
f 21/135/69 6/136/69 20/137/69 168/138/69
f 176/139/70 139/140/70 174/141/70 56/142/70
f 207/60/71 157/40/71 13/109/71 86/54/71
f 189/43/72 199/71/72 153/46/72 198/45/72
f 77/143/73 32/144/73 64/145/73 97/146/73
f 195/96/74 77/143/74 97/146/74 76/147/74
f 98/148/75 78/149/75 32/144/75 77/143/75
f 67/150/76 179/151/76 98/148/76 126/98/76
f 99/152/77 90/125/77 43/128/77 79/153/77
f 59/154/78 25/155/78 57/156/78 93/157/78
f 54/158/79 59/154/79 93/157/79 87/159/79
f 63/160/80 26/161/80 60/162/80 95/163/80
f 133/164/81 63/160/81 95/163/81 185/165/81
f 97/146/82 64/145/82 26/161/82 63/160/82
f 126/98/83 98/148/83 77/143/83 195/96/83
f 179/151/84 183/166/84 78/149/84 98/148/84
f 104/167/85 94/168/85 47/122/85 82/121/85
f 79/153/86 43/128/86 91/114/86 101/113/86
f 107/124/87 105/123/87 52/120/87 83/119/87
f 95/163/88 60/162/88 25/155/88 59/154/88
f 185/165/89 95/163/89 59/154/89 54/158/89
f 81/169/90 44/170/90 94/168/90 104/167/90
f 109/132/91 136/131/91 54/158/91 87/159/91
f 76/147/92 97/146/92 63/160/92 133/164/92
f 53/130/93 89/129/93 108/118/93 135/117/93
f 204/78/94 14/85/94 206/171/94 155/63/94
f 55/6/95 123/5/95 34/25/95 171/9/95
f 2/57/96 21/135/96 168/138/96 19/58/96
f 167/112/97 18/172/97 6/136/97 21/135/97
f 11/35/98 166/106/98 35/14/98 7/36/98
f 23/47/99 45/81/99 37/87/99 160/64/99
f 41/48/100 23/47/100 160/64/100 22/56/100
f 156/173/101 206/171/101 14/85/101 205/82/101
f 157/40/102 208/39/102 124/110/102 13/109/102
f 111/174/103 194/175/103 71/176/103 96/177/103
f 112/178/104 4/179/104 72/180/104 106/181/104
f 96/182/105 71/183/105 4/179/105 112/178/105
f 40/38/106 193/90/106 139/140/106 176/139/106
f 178/184/107 142/185/107 175/186/107 58/187/107
f 1/52/108 73/51/108 206/171/108 156/173/108
f 86/54/109 1/52/109 156/173/109 207/60/109
f 155/63/110 206/171/110 73/51/110 159/27/110
f 9/188/111 196/189/111 145/101/111 138/100/111
f 29/190/112 9/188/112 138/100/112 141/104/112
f 208/39/113 40/38/113 176/139/113 142/185/113
f 124/110/114 208/39/114 142/185/114 178/184/114
f 143/191/115 178/184/115 58/187/115 177/192/115
f 113/193/116 15/194/116 85/195/116 131/196/116
f 106/181/117 72/180/117 15/194/117 113/193/117
f 114/197/118 135/117/118 52/120/118 131/196/118
f 188/198/119 53/130/119 135/117/119 114/197/119
f 91/114/120 111/174/120 96/177/120 44/115/120
f 8/30/121 204/78/121 155/63/121 203/31/121
f 115/199/122 75/200/122 133/164/122 185/165/122
f 24/22/123 169/16/123 30/19/123 165/34/123
f 117/201/124 84/202/124 140/203/124 10/204/124
f 17/65/125 167/112/125 21/135/125 2/57/125
f 30/111/126 27/205/126 18/172/126 167/112/126
f 201/206/127 170/207/127 84/202/127 117/201/127
f 118/208/128 122/209/128 196/189/128 16/210/128
f 207/60/129 156/173/129 205/82/129 28/59/129
f 92/127/130 61/134/130 194/175/130 111/174/130
f 119/211/131 9/188/131 29/190/131 65/212/131
f 65/212/132 120/213/132 74/214/132 85/195/132
f 94/168/133 112/178/133 106/181/133 47/122/133
f 44/170/134 96/182/134 112/178/134 94/168/134
f 72/180/135 16/210/135 119/211/135 15/194/135
f 75/200/136 121/215/136 76/147/136 133/164/136
f 179/75/137 144/74/137 180/216/137 183/217/137
f 66/11/138 12/107/138 143/191/138 181/218/138
f 121/215/139 134/97/139 195/96/139 76/147/139
f 103/219/140 127/220/140 18/221/140 27/222/140
f 48/12/141 66/11/141 181/218/141 144/74/141
f 144/74/142 181/218/142 62/223/142 180/216/142
f 127/220/143 88/224/143 6/225/143 18/221/143
f 136/131/144 115/199/144 185/165/144 54/158/144
f 200/62/145 154/32/145 38/49/145 45/53/145
f 142/185/146 176/139/146 56/142/146 175/186/146
f 10/226/147 140/227/147 122/209/147 118/208/147
f 88/224/148 128/228/148 20/229/148 6/225/148
f 181/218/149 143/191/149 177/192/149 62/223/149
f 12/107/150 124/110/150 178/184/150 143/191/150
f 170/207/151 100/230/151 128/228/151 88/224/151
f 122/209/152 140/227/152 103/231/152 130/232/152
f 105/123/153 113/193/153 131/196/153 52/120/153
f 47/122/154 106/181/154 113/193/154 105/123/154
f 196/189/155 122/209/155 130/232/155 145/101/155
f 33/233/156 42/94/156 129/93/156 132/234/156
f 74/214/157 114/197/157 131/196/157 85/195/157
f 102/235/158 188/198/158 114/197/158 74/214/158
f 164/105/159 33/233/159 132/234/159 141/104/159
f 15/194/160 119/211/160 65/212/160 85/195/160
f 43/128/161 92/127/161 111/174/161 91/114/161
f 190/133/162 116/236/162 201/206/162 61/134/162
f 194/175/163 117/201/163 10/204/163 71/176/163
f 188/198/164 102/235/164 75/200/164 115/199/164
f 4/179/165 118/208/165 16/210/165 72/180/165
f 61/134/166 201/206/166 117/201/166 194/175/166
f 116/236/167 100/230/167 170/207/167 201/206/167
f 84/202/168 170/207/168 88/224/168 127/220/168
f 140/203/169 84/202/169 127/220/169 103/219/169
f 71/183/170 10/226/170 118/208/170 4/179/170
f 53/130/171 188/198/171 115/199/171 136/131/171
f 80/237/172 184/99/172 134/97/172 121/215/172
f 130/232/173 103/231/173 27/238/173 31/239/173
f 145/101/174 130/232/174 31/239/174 70/102/174
f 102/235/175 80/237/175 121/215/175 75/200/175
f 120/213/176 80/237/176 102/235/176 74/214/176
f 132/234/177 129/93/177 184/99/177 125/240/177
f 141/104/178 132/234/178 125/240/178 29/190/178
f 29/190/179 125/240/179 120/213/179 65/212/179
f 125/240/180 184/99/180 80/237/180 120/213/180
f 16/210/181 196/189/181 9/188/181 119/211/181
f 126/98/182 137/92/182 46/95/182 67/150/182
